<svg width="167" height="167" viewBox="0 0 167 167" fill="none" xmlns="http://www.w3.org/2000/svg">
<path d="M166.838 83.6616C166.838 100.124 161.956 116.217 152.81 129.906C143.664 143.594 130.664 154.263 115.455 160.563C100.245 166.863 83.5089 168.511 67.3625 165.299C51.2161 162.088 36.3847 154.16 24.7438 142.519C13.1029 130.878 5.17535 116.047 1.96363 99.9003C-1.24808 83.754 0.400286 67.0178 6.7003 51.8082C13.0003 36.5986 23.669 23.5988 37.3573 14.4526C51.0455 5.30639 67.1385 0.424621 83.6012 0.424622V33.3966C73.6598 33.3966 63.9416 36.3446 55.6755 41.8678C47.4095 47.391 40.9669 55.2413 37.1625 64.426C33.358 73.6108 32.3626 83.7174 34.3021 93.4678C36.2416 103.218 41.0289 112.175 48.0585 119.204C55.0882 126.234 64.0446 131.021 73.795 132.961C83.5455 134.9 93.6521 133.905 102.837 130.1C112.022 126.296 119.872 119.853 125.395 111.587C130.918 103.321 133.866 93.6031 133.866 83.6616H166.838Z" fill="black"/>
</svg>
